<svg xmlns="http://www.w3.org/2000/svg" viewBox="0 0 198.57 145.14"><defs><style>.cls-1{fill:#b28247;}.cls-2{fill:none;stroke:#fff;stroke-miterlimit:10;stroke-width:5px;}.cls-3,.cls-4{fill:#fff;}.cls-4{font-size:48px;font-family:Apple-Chancery, Apple Chancery;}</style></defs><title>資產 1</title><g id="圖層_2" data-name="圖層 2"><g id="圖層_1-2" data-name="圖層 1"><ellipse class="cls-1" cx="99.29" cy="72.57" rx="99.29" ry="72.57"/><path class="cls-2" d="M154,101.53c0,14.62-23.65,20-54.89,20s-56.58-5.38-56.58-20S67.86,68.65,99.11,68.65,154,86.92,154,101.53Z"/><path class="cls-3" d="M73.72,81.17a44.61,44.61,0,0,0,2.14,9.37A44.58,44.58,0,0,0,78,81.17a72.13,72.13,0,0,0,.58-9.38H73.14A73.93,73.93,0,0,0,73.72,81.17Z"/><path class="cls-3" d="M121.17,82.4a44.47,44.47,0,0,0,2.11,9.38,44.47,44.47,0,0,0,2.11-9.38A73.7,73.7,0,0,0,126,73h-5.38A73.7,73.7,0,0,0,121.17,82.4Z"/><path class="cls-3" d="M96.91,77.4A45.41,45.41,0,0,0,99,86.78a46,46,0,0,0,2.11-9.38,73.91,73.91,0,0,0,.57-9.38H96.34A73.91,73.91,0,0,0,96.91,77.4Z"/><text class="cls-4" transform="translate(41.58 68.59) rotate(-20.11)">B</text><text class="cls-4" transform="translate(72.55 57.56) rotate(-8.15)">a</text><text class="cls-4" transform="matrix(1, 0.04, -0.04, 1, 95.41, 54.21)">k</text><text class="cls-4" transform="matrix(0.98, 0.22, -0.22, 0.98, 116.14, 55.17)">e</text><text class="cls-4" transform="translate(132.23 58.52) rotate(22.18)">r</text></g></g></svg>