<svg xmlns="http://www.w3.org/2000/svg" viewBox="0 0 127.34 124.86"><defs><style>.cls-1{fill:none;stroke:#fff;stroke-miterlimit:10;stroke-width:5px;}.cls-2,.cls-3{fill:#fff;}.cls-3{font-size:41.73px;font-family:Apple-Chancery, Apple Chancery;}</style></defs><title>資產 2</title><g id="圖層_2" data-name="圖層 2"><g id="圖層_1-2" data-name="圖層 1"><path class="cls-1" d="M113.76,31.09c0,12.7-20.55,17.43-47.72,17.43S16.85,43.84,16.85,31.14,38.87,2.5,66,2.5,113.76,18.38,113.76,31.09Z"/><path class="cls-2" d="M44,13.38a38.47,38.47,0,0,0,1.85,8.15,38.5,38.5,0,0,0,1.86-8.15,62.07,62.07,0,0,0,.5-8.16H43.46A63.85,63.85,0,0,0,44,13.38Z"/><path class="cls-2" d="M85.22,14.46a40,40,0,0,0,1.83,8.15,39.36,39.36,0,0,0,1.84-8.15,65.71,65.71,0,0,0,.5-8.16H84.72A62.07,62.07,0,0,0,85.22,14.46Z"/><path class="cls-2" d="M64.13,10.1A39.3,39.3,0,0,0,66,18.26,39.27,39.27,0,0,0,67.8,10.1,61.81,61.81,0,0,0,68.3,2H63.63A65.43,65.43,0,0,0,64.13,10.1Z"/><text class="cls-3" transform="translate(16.04 107.22) rotate(-20.1)">B</text><text class="cls-3" transform="matrix(0.99, -0.14, 0.14, 0.99, 42.98, 97.63)">a</text><text class="cls-3" transform="matrix(1, 0.04, -0.04, 1, 62.86, 94.73)">k</text><text class="cls-3" transform="translate(80.9 95.57) rotate(12.53)">e</text><text class="cls-3" transform="matrix(0.93, 0.38, -0.38, 0.93, 94.91, 98.5)">r</text></g></g></svg>